<?xml version="1.0" standalone="no"?>
<!DOCTYPE svg PUBLIC "-//W3C//DTD SVG 20010904//EN"
 "http://www.w3.org/TR/2001/REC-SVG-20010904/DTD/svg10.dtd">
<svg version="1.0" xmlns="http://www.w3.org/2000/svg"
 width="185.000000pt" height="54.000000pt" viewBox="0 0 185.000000 54.000000"
 preserveAspectRatio="xMidYMid meet">
<metadata>
Created by potrace 1.13, written by Peter Selinger 2001-2015
</metadata>
<g transform="translate(0.000000,54.000000) scale(0.100000,-0.100000)"
fill="#000000" stroke="none">
<path d="M268 473 c7 -3 16 -2 19 1 4 3 -2 6 -13 5 -11 0 -14 -3 -6 -6z"/>
<path d="M347 444 c90 -53 120 -171 68 -260 -33 -56 -83 -86 -159 -94 l-61 -7
52 -2 c28 0 64 4 80 10 38 14 92 67 109 106 21 48 18 127 -6 174 -19 37 -90
99 -114 99 -6 0 8 -12 31 -26z"/>
<path d="M147 425 c-49 -34 -77 -91 -76 -152 l2 -48 6 55 c8 69 35 115 86 146
22 13 35 24 30 24 -6 0 -27 -11 -48 -25z"/>
<path d="M253 404 c-3 -8 -1 -20 5 -26 16 -16 42 -2 42 22 0 24 -38 28 -47 4z"/>
<path d="M331 359 c-76 -7 -92 -23 -129 -117 -24 -63 -53 -98 -72 -87 -6 4
-20 21 -31 39 -10 17 -19 26 -19 19 0 -6 11 -25 25 -41 13 -16 22 -32 18 -36
-3 -3 1 -6 10 -6 10 0 17 4 17 8 0 5 16 16 35 25 19 9 41 30 50 47 11 22 23
30 41 30 22 0 25 -4 21 -22 -5 -19 -2 -18 25 9 37 38 30 53 -25 53 l-42 1 27
24 c16 13 47 27 73 31 43 6 65 18 48 26 -5 2 -37 1 -72 -3z"/>
<path d="M520 270 c0 -73 3 -90 15 -90 11 0 15 11 15 40 l0 40 40 0 c22 0 40
5 40 10 0 6 -18 10 -40 10 -38 0 -40 2 -40 30 0 29 2 30 45 30 25 0 45 5 45
10 0 6 -27 10 -60 10 l-60 0 0 -90z"/>
<path d="M680 270 c0 -73 3 -90 15 -90 12 0 15 17 15 90 0 73 -3 90 -15 90
-12 0 -15 -17 -15 -90z"/>
<path d="M743 348 c2 -7 15 -13 28 -13 23 0 24 -3 27 -78 2 -59 6 -77 17 -77
12 0 15 16 15 74 0 73 0 75 27 78 14 2 28 9 31 16 3 9 -16 12 -73 12 -57 0
-76 -3 -72 -12z"/>
<path d="M931 334 c-13 -16 -21 -41 -21 -64 0 -55 31 -90 81 -90 38 0 79 26
79 50 0 17 -25 11 -43 -10 -49 -58 -116 34 -71 98 19 28 48 28 74 0 14 -16 23
-19 31 -11 19 19 -25 53 -70 53 -31 0 -44 -6 -60 -26z"/>
<path d="M1110 270 c0 -73 3 -90 15 -90 11 0 15 11 15 40 l0 40 40 0 40 0 0
-40 c0 -29 4 -40 15 -40 12 0 15 17 15 90 0 73 -3 90 -15 90 -10 0 -15 -11
-15 -35 0 -34 -1 -35 -40 -35 -39 0 -40 1 -40 35 0 24 -5 35 -15 35 -12 0 -15
-17 -15 -90z"/>
<path d="M1300 270 c0 -73 3 -90 15 -90 12 0 15 17 15 90 0 73 -3 90 -15 90
-12 0 -15 -17 -15 -90z"/>
<path d="M1380 270 c0 -72 3 -90 14 -90 10 0 16 13 18 37 4 50 22 52 50 4 13
-23 31 -41 41 -41 23 0 22 4 -13 55 -16 24 -30 47 -30 51 0 5 14 23 32 41 29
30 30 33 11 33 -13 0 -36 -17 -57 -42 l-36 -43 0 43 c0 31 -4 42 -15 42 -12 0
-15 -17 -15 -90z"/>
<path d="M1550 270 l0 -90 70 0 c56 0 70 3 70 15 0 12 -13 15 -55 15 -52 0
-55 1 -55 25 0 23 3 25 50 25 38 0 50 4 50 15 0 11 -12 15 -51 15 -47 0 -50 2
-47 23 3 19 10 22 56 25 77 4 63 22 -18 22 l-70 0 0 -90z"/>
<path d="M178 324 c-16 -8 -28 -17 -28 -20 0 -10 65 8 80 22 12 12 12 14 -5
14 -11 -1 -32 -8 -47 -16z"/>
</g>
</svg>
